<svg id="Layer_1" data-name="Layer 1" xmlns="http://www.w3.org/2000/svg" viewBox="0 0 243.73 64"><defs><style>.cls-1{fill:#700b97;}.cls-2{fill:#fff;}.cls-3{fill:none;}.cls-4{fill:#1f2937;}</style></defs><path class="cls-1" d="M97.84,44.43v-28h4.49V40.27h14.75v4.16Z"/><path class="cls-1" d="M119.4,34.56A10.83,10.83,0,0,1,120.78,29a8.89,8.89,0,0,1,3.66-3.54,11.14,11.14,0,0,1,5.16-1.17,8.57,8.57,0,0,1,4,.94,6.19,6.19,0,0,1,2.74,2.61l.12-3.12h4V44.43h-3.93l-.2-3.18A6.36,6.36,0,0,1,133.44,44a8.73,8.73,0,0,1-3.92,1h-.12a9.82,9.82,0,0,1-7.17-2.73A10.24,10.24,0,0,1,119.4,34.56Zm4.12,0a6.23,6.23,0,0,0,6.41,6.57,6.58,6.58,0,0,0,2.78-.57,5.49,5.49,0,0,0,2-1.48A6.48,6.48,0,0,0,135.9,37a7.26,7.26,0,0,0,0-4.81,6.43,6.43,0,0,0-1.18-2.09,5.62,5.62,0,0,0-2-1.49,6.58,6.58,0,0,0-2.78-.56,6.23,6.23,0,0,0-6.41,6.53Z"/><path class="cls-1" d="M146,44.43V24.67h3.73l.26,2.9a8.61,8.61,0,0,1,6.66-3.18,8,8,0,0,1,6.06,2.51,9.7,9.7,0,0,1,2.37,6.93v10.6H161V33.88a5.9,5.9,0,0,0-1.39-4.13,5,5,0,0,0-3.92-1.53,5.09,5.09,0,0,0-4,1.72,6,6,0,0,0-1.56,4.19v10.3Z"/><path class="cls-1" d="M169.23,34.47a10,10,0,0,1,2.88-7.39,10.11,10.11,0,0,1,7.47-2.88q5,0,7.73,3a10.14,10.14,0,0,1,2.29,7c0,.6,0,1.21-.1,1.85h-16a5.17,5.17,0,0,0,2,3.63A7,7,0,0,0,180,41.09a9.54,9.54,0,0,0,3.22-.58,5.71,5.71,0,0,0,2.5-1.56l2.68,2.63a9.66,9.66,0,0,1-3.77,2.48,13.48,13.48,0,0,1-4.71.86,10.55,10.55,0,0,1-7.75-2.85A10.19,10.19,0,0,1,169.23,34.47Zm4.35-1.84h12a4.77,4.77,0,0,0-1.74-3.56,7.21,7.21,0,0,0-8.1,0A5.65,5.65,0,0,0,173.58,32.63Z"/><circle class="cls-1" cx="70.65" cy="30.69" r="17.81"/><path class="cls-2" d="M75.33,29.5h0a2.35,2.35,0,0,1,2.35,2.35v10a0,0,0,0,1,0,0H73a0,0,0,0,1,0,0v-10A2.35,2.35,0,0,1,75.33,29.5Z" transform="translate(153.83 7.65) rotate(135)"/><path class="cls-3" d="M70.65,21.7a9,9,0,1,0,3.11,17.43l-5.31-5.31,5-5,5.44,5.45a8.83,8.83,0,0,0,.74-3.56A9,9,0,0,0,70.65,21.7Z"/><path class="cls-4" d="M80.05,39.7l-.39.39Z"/><path class="cls-2" d="M70.65,39.69a9,9,0,1,1,9-9,8.83,8.83,0,0,1-.74,3.56L80.64,36a1.27,1.27,0,0,0,2.09-.41,12.75,12.75,0,0,0,.94-5.1A13,13,0,1,0,75,43a1.28,1.28,0,0,0,.48-2.12l-1.72-1.72A8.93,8.93,0,0,1,70.65,39.69Z"/><path class="cls-2" d="M74,26.83a5.27,5.27,0,0,0-5.54-1.23l2.91,2.92-.5,2.4-2.66.75-2.91-2.91A5.28,5.28,0,1,0,74,26.83Z"/></svg>