<svg id="Layer_1" data-name="Layer 1" xmlns="http://www.w3.org/2000/svg" viewBox="0 0 243.73 64"><defs><style>.cls-1,.cls-2{fill:#700b97;}.cls-2,.cls-6{font-size:40px;font-family:Nexa-Bold, Nexa Bold;font-weight:700;}.cls-3,.cls-6{fill:#fff;}.cls-4{fill:none;}.cls-5{fill:#1f2937;}</style></defs><rect class="cls-1" x="-1.76" width="245.49" height="64"/><text class="cls-2" transform="translate(73.58 43.12)">Lane</text><circle class="cls-3" cx="70.65" cy="32" r="17.81"/><path class="cls-1" d="M75.33,30.81h0a2.35,2.35,0,0,1,2.35,2.35v10a0,0,0,0,1,0,0H73a0,0,0,0,1,0,0v-10A2.35,2.35,0,0,1,75.33,30.81Z" transform="translate(154.75 9.88) rotate(135)"/><path class="cls-4" d="M70.65,23a9,9,0,1,0,3.11,17.44l-5.31-5.31,5-5,5.44,5.45A8.86,8.86,0,0,0,79.65,32,9,9,0,0,0,70.65,23Z"/><path class="cls-5" d="M80.05,41l-.39.39Z"/><path class="cls-1" d="M70.65,41a9,9,0,1,1,9-9,8.86,8.86,0,0,1-.74,3.56l1.73,1.72a1.28,1.28,0,0,0,2.09-.41,12.75,12.75,0,0,0,.94-5.1A13,13,0,1,0,75,44.28a1.28,1.28,0,0,0,.48-2.12l-1.72-1.72A8.93,8.93,0,0,1,70.65,41Z"/><path class="cls-1" d="M74,28.14a5.27,5.27,0,0,0-5.54-1.23l2.91,2.91-.5,2.41L68.16,33l-2.91-2.91A5.28,5.28,0,1,0,74,28.14Z"/><text class="cls-6" transform="translate(94.32 43.12)">Lane</text></svg>