<svg id="Layer_1" data-name="Layer 1" xmlns="http://www.w3.org/2000/svg" viewBox="0 0 1480.36 512"><defs><style>.cls-1{fill:#fff;}.cls-2,.cls-5{fill:#700b97;}.cls-3{fill:none;}.cls-4{fill:#1f2937;}.cls-5{font-size:292.01px;font-family:Nexa-Bold, Nexa Bold;font-weight:700;}</style></defs><rect class="cls-1" width="1480.36" height="512"/><circle class="cls-2" cx="362.12" cy="248.77" r="139.15"/><path class="cls-1" d="M382.67,239.47h32a2.35,2.35,0,0,1,2.35,2.35V336a0,0,0,0,1,0,0h-36.7a0,0,0,0,1,0,0V241.81a2.35,2.35,0,0,1,2.35-2.35Z" transform="translate(884.06 209.32) rotate(135)"/><path class="cls-3" d="M362.12,178.48a70.29,70.29,0,1,0,24.32,136.25l-41.52-41.51L384.14,234l42.55,42.56a70.28,70.28,0,0,0-64.57-98.08Z"/><path class="cls-4" d="M435.58,319.15l-3.07,3.07Q434.07,320.72,435.58,319.15Z"/><path class="cls-1" d="M362.12,319.06a70.3,70.3,0,1,1,64.57-42.5l13.5,13.49a10,10,0,0,0,16.34-3.25A101.48,101.48,0,0,0,463.89,247c-1-55.21-46.34-99.87-101.56-100a101.89,101.89,0,0,0-102,102c.12,55.16,44.67,100.48,99.81,101.53a101.46,101.46,0,0,0,36-5.83,10,10,0,0,0,3.74-16.53l-13.44-13.44A70,70,0,0,1,362.12,319.06Z"/><path class="cls-1" d="M387.9,219.57A41.29,41.29,0,0,0,344.58,210l22.79,22.79-3.92,18.8-20.76,5.89L319.9,234.65a41.29,41.29,0,1,0,68-15.08Z"/><text class="cls-5" transform="translate(552.45 337.2)">Lane</text></svg>