<svg id="Layer_1" data-name="Layer 1" xmlns="http://www.w3.org/2000/svg" viewBox="0 0 512 512"><defs><style>.cls-1{fill:#fff;}.cls-2{fill:#700b97;}.cls-3{fill:none;}.cls-4{fill:#1f2937;}</style></defs><rect class="cls-1" width="512" height="512"/><circle class="cls-2" cx="256" cy="256" r="185.44"/><path class="cls-3" d="M256,162.32A93.68,93.68,0,1,0,288.4,343.9l-55.32-55.32,52.25-52.26L342.05,293A93.68,93.68,0,0,0,256,162.32Z"/><path class="cls-4" d="M353.89,349.8l-4.09,4.09C351.19,352.55,352.56,351.19,353.89,349.8Z"/><path class="cls-1" d="M301.16,243.6h7.11a20.9,20.9,0,0,1,20.9,20.9V372.32a0,0,0,0,1,0,0H280.26a0,0,0,0,1,0,0V264.5a20.9,20.9,0,0,1,20.9-20.9Z" transform="translate(737.94 310.25) rotate(135)"/><path class="cls-1" d="M256,349.68a93.63,93.63,0,1,1,92.22-77.16A43.41,43.41,0,0,0,360,311h0a13.38,13.38,0,0,0,21.88-4.45,134.83,134.83,0,0,0,9.75-52.93C390.34,180,329.87,120.51,256.28,120.36,179.62,120.2,117.54,184,120.46,261.23c2.65,70.16,59.28,127.18,129.43,130.28a135.31,135.31,0,0,0,51.42-7.65,13.36,13.36,0,0,0,5-22h0a45.73,45.73,0,0,0-38.26-12.91A94.09,94.09,0,0,1,256,349.68Z"/><path class="cls-1" d="M290.35,215.77A55,55,0,0,0,232.62,203L263,233.34l-5.23,25-27.68,7.85-30.37-30.37a55,55,0,1,0,90.63-20.1Z"/></svg>