<svg id="Layer_1" data-name="Layer 1" xmlns="http://www.w3.org/2000/svg" viewBox="0 0 1480.36 1099.52"><defs><style>.cls-1,.cls-5{fill:#700b97;}.cls-2{fill:#fff;}.cls-3{fill:none;}.cls-4{fill:#1f2937;}.cls-5{font-size:292.01px;font-family:Nexa-Bold, Nexa Bold;font-weight:700;}</style></defs><circle class="cls-1" cx="740.18" cy="392.07" r="218.38"/><path class="cls-2" d="M771.09,377.47H824a2.35,2.35,0,0,1,2.35,2.35V529a0,0,0,0,1,0,0h-57.6a0,0,0,0,1,0,0V379.82a2.35,2.35,0,0,1,2.35-2.35Z" transform="translate(1682 209.81) rotate(135)"/><path class="cls-3" d="M740.18,281.75a110.33,110.33,0,1,0,38.16,213.84l-65.16-65.15,61.54-61.54,66.79,66.78A110.31,110.31,0,0,0,740.18,281.75Z"/><path class="cls-4" d="M855.46,502.53l-4.82,4.82C852.28,505.78,853.88,504.17,855.46,502.53Z"/><path class="cls-2" d="M740.18,502.4A110.45,110.45,0,0,1,629.94,387.71c2.22-57.26,48.62-103.66,105.88-105.88A110.32,110.32,0,0,1,841.51,435.68l21.18,21.19a15.71,15.71,0,0,0,25.65-5.11,159.07,159.07,0,0,0,11.55-62.51c-1.51-86.65-72.72-156.74-159.38-156.91-88.35-.18-160.27,71.74-160.07,160.1.2,86.56,70.11,157.7,156.66,159.34a159.38,159.38,0,0,0,56.46-9.15,15.74,15.74,0,0,0,5.87-26l-21.09-21.09A109.84,109.84,0,0,1,740.18,502.4Z"/><path class="cls-2" d="M780.63,346.24a64.81,64.81,0,0,0-68-15.08l35.77,35.77-6.16,29.51-32.59,9.24L673.9,369.91a64.81,64.81,0,1,0,106.73-23.67Z"/><text class="cls-5" transform="translate(387.72 840)">Lane</text></svg>